<?xml version="1.0" standalone="no"?>
<!DOCTYPE svg PUBLIC "-//W3C//DTD SVG 20010904//EN"
 "http://www.w3.org/TR/2001/REC-SVG-20010904/DTD/svg10.dtd">
<svg version="1.0" xmlns="http://www.w3.org/2000/svg"
 width="107" height="50" viewBox="100 0 407 250"
 preserveAspectRatio="xMidYMid meet">

<g transform="translate(0.000000,181.000000) scale(0.100000,-0.100000)"
fill="#000000" stroke="none">
<path d="M1932 1660 c-65 -34 -87 -72 -87 -152 0 -60 3 -70 29 -97 16 -17 63
-45 105 -62 88 -36 121 -63 121 -96 0 -91 -118 -116 -193 -41 l-30 30 -36 -36
-35 -36 34 -36 c90 -95 236 -100 328 -11 70 67 70 205 0 256 -12 9 -62 36
-112 61 -78 38 -91 49 -94 72 -7 63 93 94 152 47 15 -12 28 -20 30 -18 1 2 15
21 30 41 l27 36 -46 28 c-66 38 -163 44 -223 14z"/>
<path d="M2432 1649 c-190 -95 -232 -347 -81 -497 80 -81 211 -113 318 -77
l51 17 0 71 0 70 -22 -20 c-37 -34 -64 -43 -121 -43 -80 0 -134 32 -170 101
-25 47 -28 62 -24 116 6 75 33 123 90 161 53 35 146 38 192 6 57 -39 55 -40
55 31 0 66 0 66 -35 81 -20 8 -67 14 -113 14 -68 0 -87 -4 -140 -31z"/>
<path d="M2960 1658 c-74 -29 -152 -109 -176 -180 -51 -153 15 -317 154 -385
50 -24 69 -28 147 -28 104 0 158 21 224 86 61 59 84 111 89 205 4 72 1 89 -20
136 -33 72 -75 118 -140 153 -73 40 -196 46 -278 13z"/>
<path d="M1100 1371 l0 -301 103 0 c59 0 127 6 161 15 269 70 309 425 62 553
-46 23 -64 26 -188 30 l-138 4 0 -301z m255 180 c111 -50 149 -194 79 -293
-35 -50 -81 -74 -156 -83 l-58 -7 0 201 0 201 48 0 c26 0 65 -9 87 -19z"/>
<path d="M1642 1373 l3 -298 58 -3 57 -3 0 301 0 300 -60 0 -60 0 2 -297z"/>
<path d="M3436 1538 c31 -73 88 -211 127 -306 l71 -173 34 3 34 3 124 295 c68
162 124 298 124 303 0 4 -28 7 -62 5 l-61 -3 -73 -180 c-40 -99 -76 -186 -81
-193 -5 -10 -33 50 -84 180 l-76 193 -66 3 -66 3 55 -133z"/>
<path d="M4010 1370 l0 -300 165 0 165 0 0 50 0 50 -105 0 -105 0 0 85 0 85
106 0 105 0 -3 48 -3 47 -102 3 -103 3 0 64 0 65 105 0 105 0 0 50 0 50 -165
0 -165 0 0 -300z"/>
<path d="M4420 1371 l0 -301 60 0 60 0 0 120 c0 66 3 120 8 120 4 0 42 -54 86
-120 l79 -120 68 0 c38 0 69 3 69 8 0 4 -41 60 -90 126 l-89 118 41 22 c50 25
76 59 88 112 17 75 -15 150 -81 189 -28 17 -56 21 -166 23 l-133 4 0 -301z
m202 199 c43 -12 58 -34 58 -85 0 -53 -36 -85 -95 -85 l-45 0 0 90 c0 101 1
102 82 80z"/>
<path d="M4830 1639 c-14 -26 11 -69 40 -69 11 0 27 11 35 24 23 34 5 66 -35
66 -19 0 -33 -7 -40 -21z m65 -24 c0 -35 -31 -47 -51 -20 -18 25 0 57 29 53
17 -2 22 -10 22 -33z"/>
<path d="M4850 1613 c0 -22 2 -25 10 -13 6 10 10 11 10 3 0 -24 15 -13 16 12
2 18 -3 25 -17 25 -14 0 -19 -7 -19 -27z"/>
<path d="M2554 940 c-64 -26 -84 -115 -38 -169 37 -44 134 -56 134 -16 0 11
-6 12 -29 4 -39 -14 -84 9 -101 51 -11 27 -11 37 3 65 18 38 49 51 97 41 22
-4 30 -2 30 8 0 25 -53 34 -96 16z"/>
<path d="M2787 848 c-26 -57 -47 -106 -47 -110 0 -19 21 -5 35 22 14 27 21 30
60 30 39 0 46 -3 60 -30 15 -30 35 -40 35 -19 0 11 -79 189 -90 202 -4 4 -28
-39 -53 -95z m68 6 c8 -20 15 -38 15 -40 0 -2 -16 -4 -35 -4 -19 0 -35 2 -35
5 0 7 33 75 37 75 1 0 10 -16 18 -36z"/>
<path d="M3030 834 c0 -80 3 -105 13 -102 6 3 14 24 17 49 l5 44 33 -47 c31
-46 52 -60 52 -37 0 6 -12 26 -26 45 l-26 34 22 18 c25 20 30 63 10 87 -8 9
-29 15 -56 15 l-44 0 0 -106z m80 71 c17 -20 3 -52 -25 -58 -23 -4 -25 -1 -25
34 0 31 4 39 19 39 10 0 24 -7 31 -15z"/>
<path d="M3252 838 l3 -103 42 2 c90 4 138 62 113 138 -14 43 -53 65 -115 65
l-46 0 3 -102z m113 57 c49 -48 23 -120 -47 -132 l-38 -6 0 82 0 81 30 0 c19
0 40 -9 55 -25z"/>
<path d="M167 283 c-4 -3 -7 -44 -7 -90 0 -67 3 -83 15 -83 11 0 15 11 15 40
0 38 2 40 30 40 17 0 30 5 30 10 0 6 -13 10 -30 10 -25 0 -30 4 -30 24 0 22 5
25 42 28 65 5 61 28 -4 28 -30 0 -58 -3 -61 -7z"/>
<path d="M338 273 c-23 -27 -30 -69 -18 -113 19 -70 80 -78 107 -13 16 41 10
105 -14 128 -20 20 -57 19 -75 -2z m62 -22 c11 -22 13 -64 4 -98 -8 -28 -39
-30 -54 -4 -22 42 -6 121 25 121 8 0 19 -9 25 -19z"/>
<path d="M500 200 c0 -73 3 -90 15 -90 11 0 15 11 15 40 0 27 4 40 13 40 8 0
22 -18 32 -40 11 -25 25 -40 36 -40 16 0 16 3 -4 39 -21 38 -21 40 -3 59 35
40 -3 82 -75 82 l-29 0 0 -90z m75 56 c25 -18 13 -46 -20 -46 -21 0 -25 5 -25
30 0 33 15 38 45 16z"/>
<path d="M762 278 c3 -7 14 -14 26 -16 20 -3 22 -9 22 -78 0 -59 3 -74 15 -74
12 0 15 15 15 75 0 73 1 75 25 75 16 0 25 6 25 15 0 12 -14 15 -66 15 -48 0
-65 -3 -62 -12z"/>
<path d="M957 283 c-4 -3 -7 -44 -7 -90 0 -67 3 -83 15 -83 11 0 15 11 15 40
0 38 2 40 30 40 28 0 30 -2 30 -40 0 -29 4 -40 15 -40 12 0 15 17 15 91 0 68
-3 90 -12 87 -7 -3 -14 -21 -16 -41 -3 -34 -6 -37 -33 -37 -27 0 -29 2 -29 40
0 38 -8 49 -23 33z"/>
<path d="M1157 284 c-4 -4 -7 -45 -7 -91 l0 -83 60 0 c33 0 60 4 60 10 0 6
-20 10 -45 10 -43 0 -45 1 -45 30 0 27 3 30 30 30 17 0 30 5 30 10 0 6 -13 10
-30 10 -25 0 -30 4 -30 24 0 22 5 25 43 28 23 2 42 8 42 13 0 12 -97 19 -108
9z"/>
<path d="M1452 278 c-24 -24 -13 -57 28 -83 46 -29 55 -65 17 -65 -13 0 -28 5
-34 11 -18 18 -36 7 -21 -13 22 -28 63 -33 87 -9 32 32 26 57 -24 91 -29 20
-42 35 -39 45 7 18 35 20 52 3 17 -17 28 -2 12 17 -15 18 -61 20 -78 3z"/>
<path d="M1600 200 l0 -90 55 0 c30 0 55 5 55 10 0 6 -18 10 -40 10 l-40 0 0
80 c0 64 -3 80 -15 80 -12 0 -15 -17 -15 -90z"/>
<path d="M1765 280 c-3 -5 -1 -10 4 -10 16 0 14 -147 -1 -153 -7 -3 1 -6 17
-6 l30 -1 0 90 c0 86 -1 90 -22 90 -12 0 -25 -4 -28 -10z"/>
<path d="M1908 273 c-54 -61 -11 -197 51 -163 11 5 27 7 35 4 13 -5 16 2 16
35 0 39 -2 41 -30 41 -16 0 -30 -4 -30 -10 0 -5 7 -10 16 -10 11 0 14 -5 10
-16 -3 -9 -6 -18 -6 -20 0 -2 -9 -4 -20 -4 -37 0 -55 85 -26 125 13 17 17 18
40 6 31 -17 43 -10 21 13 -21 21 -58 20 -77 -1z"/>
<path d="M2077 283 c-4 -3 -7 -44 -7 -90 0 -67 3 -83 15 -83 11 0 15 11 15 40
0 38 2 40 30 40 28 0 30 -2 30 -40 0 -29 4 -40 15 -40 12 0 15 17 15 91 0 68
-3 90 -12 87 -7 -3 -14 -21 -16 -41 -3 -34 -6 -37 -33 -37 -27 0 -29 2 -29 40
0 38 -8 49 -23 33z"/>
<path d="M2240 275 c0 -9 9 -15 25 -15 24 0 25 -2 25 -75 0 -60 3 -75 15 -75
12 0 15 15 15 74 0 69 2 75 22 78 12 2 23 9 26 16 3 9 -14 12 -62 12 -52 0
-66 -3 -66 -15z"/>
<path d="M2427 283 c-4 -3 -7 -44 -7 -90 l0 -83 55 0 c30 0 55 5 55 10 0 6
-18 10 -40 10 l-40 0 0 80 c0 73 -6 91 -23 73z"/>
<path d="M2560 278 c0 -7 12 -31 25 -53 15 -24 25 -55 25 -77 0 -27 4 -38 15
-38 11 0 15 11 15 38 0 21 11 56 25 81 27 47 31 61 15 61 -5 0 -20 -20 -33
-45 l-23 -46 -22 46 c-21 43 -42 60 -42 33z"/>
<path d="M2866 274 c-30 -29 -14 -59 46 -90 18 -9 28 -22 26 -32 -4 -23 -36
-27 -58 -7 -12 11 -20 13 -25 6 -16 -27 40 -56 79 -42 48 19 40 73 -15 101
-40 21 -51 46 -24 57 9 3 24 -2 34 -11 14 -13 21 -14 27 -5 9 15 -22 39 -52
39 -13 0 -30 -7 -38 -16z"/>
<path d="M3040 200 c0 -53 4 -90 10 -90 6 0 10 33 11 78 l1 77 21 -78 c12 -42
27 -77 33 -77 6 0 20 33 32 73 l20 72 1 -72 c1 -59 4 -73 16 -73 13 0 15 14
13 88 -3 79 -5 87 -23 87 -16 0 -23 -13 -37 -64 -9 -35 -19 -65 -21 -68 -3 -2
-12 28 -22 67 -14 56 -21 70 -36 70 -17 0 -19 -8 -19 -90z"/>
<path d="M3296 204 c-15 -47 -25 -88 -22 -91 8 -8 26 7 26 23 0 9 11 14 36 14
27 0 37 -5 41 -20 3 -11 11 -20 18 -20 19 0 -36 174 -57 178 -11 2 -22 -19
-42 -84z m64 -21 c0 -7 -12 -13 -26 -13 -20 0 -25 4 -20 16 3 9 9 28 13 42 l6
27 13 -30 c7 -16 13 -36 14 -42z"/>
<path d="M3470 200 c0 -53 4 -90 10 -90 6 0 10 18 10 40 0 29 4 40 15 40 8 0
24 -18 35 -40 11 -22 27 -40 35 -40 13 0 12 7 -6 42 -19 37 -19 42 -5 50 23
13 20 54 -6 72 -12 9 -37 16 -55 16 l-33 0 0 -90z m58 64 c34 -10 26 -48 -10
-52 -25 -3 -28 0 -28 27 0 33 2 34 38 25z"/>
<path d="M3622 278 c3 -7 14 -14 26 -16 20 -3 22 -9 22 -78 0 -59 3 -74 15
-74 12 0 15 15 15 75 0 73 1 75 25 75 16 0 25 6 25 15 0 12 -14 15 -66 15 -48
0 -65 -3 -62 -12z"/>
<path d="M3810 200 l0 -90 60 0 c33 0 60 4 60 10 0 6 -20 10 -45 10 -43 0 -45
1 -45 30 0 27 3 30 30 30 17 0 30 5 30 10 0 6 -13 10 -30 10 -25 0 -30 4 -30
24 0 22 5 25 43 28 60 4 48 22 -18 26 l-55 3 0 -91z"/>
<path d="M4000 200 c0 -73 3 -90 15 -90 11 0 15 11 15 41 0 50 16 48 45 -4 11
-20 26 -37 33 -37 16 0 15 10 -6 45 -18 29 -18 31 0 56 32 43 0 79 -73 79
l-29 0 0 -90z m84 50 c15 -15 -3 -40 -29 -40 -21 0 -25 5 -25 31 0 27 3 30 23
24 12 -4 26 -11 31 -15z"/>
<path d="M4299 274 c-9 -11 -14 -40 -14 -76 0 -51 4 -63 24 -79 30 -25 37 -24
69 8 19 19 23 28 13 31 -8 3 -18 -3 -23 -12 -12 -21 -44 -21 -52 0 -3 9 -6 33
-6 54 0 21 3 45 6 54 8 21 41 20 53 -1 5 -10 13 -14 17 -10 14 14 -12 42 -43
45 -19 2 -35 -3 -44 -14z"/>
<path d="M4483 282 c-39 -25 -39 -139 0 -167 29 -20 43 -19 67 5 25 25 28 114
4 148 -15 22 -48 29 -71 14z m61 -50 c12 -41 -3 -96 -28 -100 -25 -5 -36 15
-36 69 0 72 45 95 64 31z"/>
<path d="M4640 200 c0 -53 4 -90 10 -90 6 0 10 31 11 73 l0 72 34 -72 c48
-104 65 -99 65 17 0 53 -4 90 -10 90 -6 0 -10 -31 -10 -72 l-1 -73 -34 73
c-48 103 -65 98 -65 -18z"/>
<path d="M4846 268 c-13 -19 -14 -25 -2 -42 7 -11 26 -28 42 -37 16 -8 30 -23
32 -32 5 -23 -24 -32 -54 -17 -25 14 -41 9 -29 -10 12 -19 53 -30 79 -20 49
18 42 77 -13 100 -30 12 -46 34 -35 51 8 14 31 11 48 -6 19 -19 33 -1 16 20
-19 23 -66 19 -84 -7z"/>
<path d="M5004 275 c-4 -9 -4 -43 -2 -77 5 -69 32 -104 72 -92 36 11 46 34 46
112 0 54 -3 73 -12 70 -8 -3 -15 -32 -18 -79 -4 -62 -8 -74 -24 -77 -27 -6
-36 15 -36 91 0 63 -13 88 -26 52z"/>
<path d="M5200 200 c0 -108 18 -122 22 -17 l3 72 19 -72 c11 -40 25 -73 32
-73 6 0 20 33 30 73 l19 72 3 -72 c4 -105 22 -90 22 18 0 79 -2 90 -17 87 -11
-2 -24 -26 -38 -73 l-21 -70 -19 73 c-15 56 -23 72 -37 72 -16 0 -18 -10 -18
-90z"/>
<path d="M5430 200 l0 -90 60 0 c33 0 60 4 60 10 0 6 -20 10 -45 10 -43 0 -45
1 -45 30 0 27 3 30 30 30 17 0 30 5 30 10 0 6 -13 10 -30 10 -25 0 -30 4 -30
24 0 22 5 25 43 28 60 4 48 22 -18 26 l-55 3 0 -91z"/>
<path d="M5617 283 c-4 -3 -7 -44 -7 -90 0 -67 3 -83 15 -83 11 0 15 11 15 40
0 26 4 40 13 40 7 0 23 -18 36 -40 12 -22 29 -40 37 -40 12 0 11 8 -7 39 -20
37 -21 41 -5 56 22 23 20 51 -6 69 -23 16 -79 22 -91 9z m61 -19 c34 -10 26
-48 -10 -52 -25 -3 -28 0 -28 27 0 33 2 34 38 25z"/>
<path d="M5755 280 c-3 -6 1 -13 9 -16 9 -3 16 -11 16 -16 0 -6 -7 -7 -16 -4
-8 3 -12 2 -9 -4 10 -16 35 -12 35 5 0 9 -7 18 -15 21 -8 4 -12 10 -9 15 3 5
3 9 0 9 -3 0 -8 -5 -11 -10z"/>
<path d="M5811 258 c0 -28 2 -30 9 -13 12 28 12 45 0 45 -5 0 -10 -15 -9 -32z"/>
<path d="M5841 264 c-6 -15 -10 -29 -7 -31 2 -2 8 6 12 19 7 22 7 22 15 3 7
-17 8 -16 8 8 1 34 -12 35 -28 1z"/>
</g>
</svg>
