<?xml version="1.0" standalone="no"?>
<!DOCTYPE svg PUBLIC "-//W3C//DTD SVG 1.0//EN" "http://www.w3.org/TR/2001/REC-SVG-20010904/DTD/svg10.dtd">
<svg xmlns="http://www.w3.org/2000/svg" xmlns:xlink="http://www.w3.org/1999/xlink" id="body_1" width="430" height="64" viewBox="0 0 107 110">

<g transform="matrix(0.656 0 0 0.656 73.50401 -0)">
    <path d="M87.466 83.519C 87.553 83.215 87.64001 82.889 88.879005 82.889C 92.725006 82.889 93.463005 85.561 93.463005 87.756C 93.463005 89.08099 92.746 95.772995 85.90201 95.772995C 84.881004 95.772995 84.35901 95.643 84.35901 94.925995C 84.35901 94.577995 84.642006 93.621994 84.837006 92.905L84.837006 92.905L87.466 83.519zM83.491005 82.584C 84.59901 82.671 85.164 82.78 85.164 83.519C 85.164 83.953995 84.99 84.627 84.925 84.866L84.925 84.866L82.253006 94.47C 81.884 95.817 81.55801 95.882 80.493004 96.077L80.493004 96.077L80.493004 96.425L85.990005 96.425C 92.378006 96.425 95.87601 92.40501 95.87601 88.017006C 95.87601 85.73601 94.52901 82.23701 89.532005 82.23701L89.532005 82.23701L83.492004 82.23701L83.492004 82.58401zM100.372 94.187C 99.525 95.468994 98.569 96.663994 97.352005 96.663994C 96.331 96.663994 96.331 95.70799 96.331 95.31699C 96.331 94.29599 98.047005 88.907 98.047005 88.298996C 98.047005 87.842995 97.873 87.73399 96.678 87.73399L96.678 87.73399L96.678 87.385994C 97.504 87.342995 99.307 86.994995 100.154 86.842995L100.154 86.842995L100.219 86.885994L98.307 93.881996C 98.22 94.186 97.959 95.05499 97.959 95.315994C 97.959 95.467995 98.111 95.64199 98.307 95.64199C 98.568 95.64199 99.198 95.20699 100.089 93.94699L100.089 93.94699L100.371994 94.18699zM99.938 84.518C 99.395004 84.518 98.895004 84.147995 98.895004 83.388C 98.895004 82.628006 99.395004 82.215004 99.91601 82.215004C 100.63301 82.215004 101.00201 82.93201 101.00201 83.41C 101.00201 83.844 100.65401 84.518005 99.938 84.518005zM110.519 94.165C 109.433 95.621 108.672 96.62 107.499 96.62C 106.499 96.62 106.456 95.968 106.456 95.338005C 106.456 94.817 108.064 89.51501 108.064 88.646C 108.064 88.255005 107.934006 87.951004 107.521 87.951004C 106.478004 87.951004 105.109 89.82001 104.327 91.036C 103.328 92.535 103.045006 93.47 102.15501 96.424L102.15501 96.424L100.52601 96.424C 101.199005 93.969 102.65501 88.885 102.65501 88.428C 102.65501 88.102005 102.438 87.863 101.26501 87.863L101.26501 87.863L101.26501 87.515C 102.438 87.298 103.61101 87.081 104.785 86.842L104.785 86.842L104.850006 86.885L103.45901 91.426L103.50201 91.469C 104.52301 89.861 106.522 86.841 108.325005 86.841C 109.325005 86.841 109.824005 87.36201 109.824005 88.275C 109.824005 89.209 108.086006 94.576004 108.086006 95.228004C 108.086006 95.554 108.39001 95.59801 108.434006 95.59801C 108.869 95.59801 109.412 94.90301 110.216 93.881004L110.216 93.881004L110.519005 94.165zM113.3 90.949C 114.104004 89.015 115.581 87.342995 116.755005 87.342995C 117.298004 87.342995 117.51501 87.756 117.51501 88.212C 117.51501 88.386 117.407005 90.993 112.93101 91.906L112.93101 91.906L113.30001 90.949zM117.775 94.056C 116.689 94.947 115.776 95.686 114.603004 95.686C 113.69 95.686 112.561005 95.186 112.561005 93.708C 112.561005 93.273 112.670006 92.839 112.77801 92.383L112.77801 92.383L113.38601 92.296005C 116.906006 91.796005 118.948006 90.036 118.948006 88.32001C 118.948006 87.364006 118.274 86.84201 117.16601 86.84201C 114.103004 86.84201 110.670006 90.49201 110.670006 93.599014C 110.670006 94.96802 111.365005 96.66202 113.647 96.66202C 115.82 96.66202 117.797005 94.66302 118.036 94.31502L118.036 94.31502L117.775 94.056015zM119.101 96.424L120.861 90.08C 121.078 89.276 121.208 88.538 121.208 88.342C 121.208 88.038 121.1 87.691 120.426 87.691C 120.187004 87.691 119.948006 87.756004 119.709 87.799L119.709 87.799L119.709 87.43C 120.817 87.278 122.099 86.995 123.076996 86.843L123.076996 86.843L123.142 86.886L122.077995 91.21L122.120995 91.253L122.295 90.818C 123.012 89.384 124.664 86.842 126.032 86.842C 126.532 86.842 127.075 87.168 127.075 87.906006C 127.075 89.036 126.293 89.036 126.05399 89.036C 125.119995 89.036 125.44599 88.254005 124.923996 88.254005C 124.251 88.254005 122.947 90.66601 122.772995 90.992004C 121.947 92.55601 121.643 93.534004 120.752 96.424L120.752 96.424L119.101 96.424zM125.966 93.252C 126.118004 94.208 126.466 96.207 128.226 96.207C 129.442 96.207 129.79 95.164 129.79 94.447C 129.79 93.013 127.204994 90.927 127.204994 89.254C 127.204994 88.581 127.508995 86.841995 129.812 86.841995C 130.79 86.841995 131.224 87.212 131.87599 87.212C 132.24599 87.212 132.37599 86.994995 132.484 86.82L132.484 86.82L132.788 86.82L132.353 89.841L132.00499 89.841C 131.89699 88.602005 131.37498 87.342 129.96298 87.342C 129.48499 87.342 128.78998 87.537 128.78998 88.602005C 128.78998 89.97101 131.43997 91.90501 131.43997 93.75101C 131.43997 96.119 129.41898 96.66301 128.20297 96.66301C 127.55097 96.66301 126.68197 96.25001 126.05197 96.25001C 125.74797 96.25001 125.66097 96.46701 125.53097 96.70701L125.53097 96.70701L125.18297 96.70701L125.617966 93.25201L125.965965 93.25201zM150.757 86.256C 150.714 85.647995 150.518 82.736 147.41101 82.736C 143.06601 82.736 140.84901 87.994 140.84901 91.188C 140.84901 94.035 142.04402 95.838005 144.63002 95.838005C 147.08502 95.838005 148.60602 94.295006 149.64902 93.274L149.64902 93.274L150.01802 93.578C 149.21402 94.534004 147.28001 96.815 144.10802 96.815C 141.58702 96.815 138.41602 95.294 138.41602 90.949005C 138.41602 86.756004 142.26102 81.954 147.23701 81.954C 148.80101 81.954 150.12701 82.475006 150.626 82.475006C 151.25601 82.475006 151.386 82.214005 151.49501 81.99701L151.49501 81.99701L151.951 81.99701L151.147 86.32101L150.757 86.256004zM154.754 93.947C 153.646 95.619995 152.798 96.663 151.451 96.663C 150.49501 96.663 150.408 95.924 150.408 95.316C 150.408 94.859 153.559 83.518005 153.559 83.062004C 153.559 82.498 152.64601 82.498 152.08101 82.519005L152.08101 82.519005L152.08101 82.171005C 153.21101 82.04101 154.341 81.84501 155.47 81.58501L155.47 81.58501L155.579 81.69301L152.29799 94.27301C 152.25499 94.46901 152.081 95.05501 152.081 95.294014C 152.081 95.42401 152.081 95.72901 152.407 95.72901C 152.95 95.72901 153.407 95.12101 154.471 93.751015L154.471 93.751015L154.754 93.947014zM164.792 94.078C 163.423 96.055 162.858 96.62 161.772 96.62C 160.794 96.62 160.751 95.816 160.751 95.490005C 160.751 95.09901 161.186 93.274 161.68501 91.492004L161.68501 91.492004L161.62001 91.492004C 160.14201 93.94701 158.535 96.663 156.57901 96.663C 155.79701 96.663 155.384 96.337006 155.384 95.381004C 155.384 94.425 157.035 88.949005 157.035 88.36301C 157.035 87.73301 156.62201 87.73301 155.73201 87.73301L155.73201 87.73301L155.73201 87.43001C 156.82875 87.29738 157.91693 87.10138 158.99101 86.84301L158.99101 86.84301L159.05602 86.88601L157.07802 94.77301C 157.01302 95.05501 157.07802 95.51101 157.53502 95.51101C 158.46902 95.51101 159.83801 93.46901 160.57703 92.33901C 161.64203 90.73101 162.12003 89.362015 162.96703 87.03701L162.96703 87.03701L164.57503 87.03701L162.85902 93.53401C 162.72902 93.96901 162.44603 94.92501 162.44603 95.251015C 162.44603 95.35902 162.46703 95.599014 162.70703 95.599014C 163.12003 95.599014 163.72803 94.83801 164.48903 93.88201L164.48903 93.88201L164.79202 94.07801zM172.679 89.754C 172.679 91.578995 170.615 96.164 167.638 96.164C 166.617 96.164 166.617 95.599 166.617 95.447C 166.617 93.166 168.703 87.907 171.093 87.907C 172.462 87.907 172.679 89.081 172.679 89.754zM166.639 82.453995C 167.899 82.476 168.05101 82.58399 168.05101 83.08399C 168.05101 83.38799 167.856 83.93099 167.70401 84.53999L167.70401 84.53999L164.74901 95.424995L164.74901 95.51199C 164.74901 95.98999 166.42201 96.663994 167.574 96.663994C 170.89801 96.663994 174.526 92.90499 174.526 89.47199C 174.526 87.885994 173.462 86.842995 171.941 86.842995C 169.986 86.842995 168.61699 88.864 167.9 89.993L167.9 89.993L167.857 89.97199C 168.596 87.51599 169.595 83.47499 170.073 81.69399L170.073 81.69399L169.965 81.58599C 168.83499 81.80299 167.72699 81.954994 166.64099 82.08599L166.64099 82.08599L166.64099 82.45399zM80.5 113.007C 81.565 112.811005 81.891 112.746 82.26 111.399L82.26 111.399L84.932 101.795C 85.062 101.36 85.171 100.839 85.171 100.448C 85.171 99.687996 84.585 99.623 83.649994 99.514L83.649994 99.514L83.649994 99.166L89.01699 99.166L89.01699 99.514C 87.95299 99.71 87.60499 99.753 87.23499 101.122L87.23499 101.122L84.562996 110.747C 84.433 111.182 84.324 111.616005 84.324 112.138C 84.324 112.833 84.867 112.899 85.801994 113.007L85.801994 113.007L85.801994 113.355L80.5 113.355L80.5 113.007z" stroke="none" fill="#000000" fill-rule="nonzero" />
    <path d="M96.252 111.095C 95.165 112.551 94.405 113.551 93.231 113.551C 92.232 113.551 92.188 112.899 92.188 112.269005C 92.188 111.748 93.796005 106.44601 93.796005 105.577C 93.796005 105.186005 93.66601 104.882 93.253006 104.882C 92.21001 104.882 90.841 106.75101 90.059006 107.967C 89.059006 109.466 88.77701 110.4 87.88601 113.355L87.88601 113.355L86.25701 113.355C 86.93001 110.9 88.38601 105.815 88.38601 105.359C 88.38601 105.033005 88.16901 104.794 86.99601 104.794L86.99601 104.794L86.99601 104.446C 88.16901 104.229 89.34201 104.011 90.51601 103.771996L90.51601 103.771996L90.58101 103.815994L89.19101 108.356995L89.23401 108.40099C 90.25501 106.79299 92.254005 103.772995 94.05701 103.772995C 95.05701 103.772995 95.55701 104.295 95.55701 105.20799C 95.55701 106.14199 93.81901 111.508995 93.81901 112.160995C 93.81901 112.48699 94.12301 112.53 94.16701 112.53C 94.602005 112.53 95.145004 111.835 95.948006 110.813995L95.948006 110.813995L96.25201 111.09499L96.252 111.095zM102.053 104.75L100.228004 104.75L98.316 111.985C 98.294 112.05 98.294 112.093 98.294 112.159004C 98.294 112.354004 98.402 112.52801 98.642 112.52801C 99.076996 112.52801 99.837 111.507 100.38 110.812004L100.38 110.812004L100.661995 110.964005C 99.55399 112.637 98.70699 113.593 97.576996 113.593C 97.142 113.593 96.534 113.376 96.534 112.724C 96.534 112.398 96.947 111.073 97.034 110.725L97.034 110.725L98.598 104.75L96.99 104.75C 96.968994 104.62 96.968994 104.511 97.034 104.402C 97.163994 104.206 97.771996 104.054 98.142 103.859C 98.859 103.489 99.902 102.512 100.509995 101.751C 100.59699 101.643 100.684 101.447 100.879 101.491C 101.031 101.447 101.075 101.643 101.031 101.81699L101.031 101.81699L100.423 104.05499L102.160995 104.05499L102.05299 104.74999zM103.986 107.879C 104.79 105.945 106.268 104.271996 107.441 104.271996C 107.984 104.271996 108.202 104.685 108.202 105.141C 108.202 105.315 108.093 107.922 103.618004 108.835L103.618004 108.835L103.986 107.879zM108.462 110.986C 107.376 111.877 106.463 112.615 105.29 112.615C 104.377 112.615 103.248 112.115 103.248 110.638C 103.248 110.203 103.356 109.769 103.465004 109.313L103.465004 109.313L104.073006 109.226006C 107.593 108.726006 109.635 106.966 109.635 105.24901C 109.635 104.29301 108.961 103.77101 107.853004 103.77101C 104.79 103.77101 101.356 107.42101 101.356 110.528015C 101.356 111.89702 102.051 113.59102 104.333 113.59102C 106.506 113.59102 108.483 111.59202 108.722 111.24502L108.722 111.24502L108.462 110.986015zM110.222 113.354L111.982 107.009995C 112.199005 106.20599 112.33 105.466995 112.33 105.271996C 112.33 104.967995 112.221 104.619995 111.548004 104.619995C 111.309006 104.619995 111.07001 104.685 110.831 104.729L110.831 104.729L110.831 104.35899C 111.939 104.20699 113.221 103.923996 114.199005 103.771996L114.199005 103.771996L114.26401 103.815994L113.200005 108.13999L113.243004 108.18299L113.41701 107.74799C 114.13401 106.313995 115.785 103.770996 117.15401 103.770996C 117.65401 103.770996 118.19701 104.09699 118.19701 104.836C 118.19701 105.965996 117.41501 105.965996 117.176 105.965996C 116.242004 105.965996 116.568 105.184 116.047005 105.184C 115.373 105.184 114.06901 107.596 113.896 107.922C 113.07001 109.486 112.76601 110.464 111.875 113.354L111.875 113.354L110.222 113.354z" stroke="none" fill="#000000" fill-rule="nonzero" />
    <path d="M126.908 111.095C 125.822 112.551 125.061 113.551 123.888 113.551C 122.888 113.551 122.845 112.899 122.845 112.269005C 122.845 111.748 124.453 106.44601 124.453 105.577C 124.453 105.186005 124.323006 104.882 123.91 104.882C 122.868004 104.882 121.498 106.75101 120.716 107.967C 119.717 109.466 119.434006 110.4 118.54301 113.355L118.54301 113.355L116.91401 113.355C 117.58801 110.9 119.04301 105.815 119.04301 105.359C 119.04301 105.033005 118.826004 104.794 117.65201 104.794L117.65201 104.794L117.65201 104.446C 118.825005 104.229 119.99901 104.011 121.172005 103.771996L121.172005 103.771996L121.23701 103.815994L119.84601 108.356995L119.88901 108.40099C 120.91001 106.79299 122.909004 103.772995 124.713005 103.772995C 125.713005 103.772995 126.212006 104.295 126.212006 105.20799C 126.212006 106.14199 124.47401 111.508995 124.47401 112.160995C 124.47401 112.48699 124.77801 112.53 124.82201 112.53C 125.257 112.53 125.8 111.835 126.604004 110.813995L126.604004 110.813995L126.908005 111.09499L126.908 111.095z" stroke="none" fill="#000000" fill-rule="nonzero" />
    <path d="M128.581 110.986C 128.581 109.03 130.53699 104.251 133.079 104.251C 133.709 104.251 134.318 104.664 134.318 105.707C 134.318 107.836 132.189 112.529 129.885 112.529C 129.29799 112.529 128.581 112.138 128.581 110.986zM136.46799 110.964C 135.48999 111.92 135.055 112.464 134.72998 112.464C 134.55598 112.464 134.42598 112.334 134.42598 112.181C 134.42598 111.508 136.42497 104.098 136.48997 103.838L136.48997 103.838L136.33798 103.772995L135.01299 103.924995L134.94798 103.99L134.73099 104.947L134.68799 104.947C 134.62299 104.338 133.90599 103.772995 132.97198 103.772995C 130.08199 103.772995 126.75799 107.836 126.75799 111.03C 126.75799 111.659996 126.82299 113.593 128.99599 113.593C 130.29999 113.593 131.45099 112.941 133.25398 110.291L133.25398 110.291L133.29698 110.334C 132.94897 111.659 132.84099 112.137 132.84099 112.637C 132.84099 113.006004 132.84099 113.571 133.75398 113.571C 134.68799 113.571 135.42699 112.789 136.73099 111.181L136.73099 111.181L136.46799 110.964zM142.921 104.75L141.09601 104.75L139.184 111.985C 139.162 112.05 139.162 112.093 139.162 112.159004C 139.162 112.354004 139.271 112.52801 139.51001 112.52801C 139.945 112.52801 140.70502 111.507 141.24802 110.812004L141.24802 110.812004L141.53001 110.964005C 140.42201 112.637 139.57501 113.593 138.445 113.593C 138.01001 113.593 137.40201 113.376 137.40201 112.724C 137.40201 112.398 137.815 111.073 137.90201 110.725L137.90201 110.725L139.466 104.75L137.858 104.75C 137.837 104.62 137.837 104.511 137.90201 104.402C 138.03201 104.206 138.64001 104.054 139.01001 103.859C 139.727 103.489 140.77 102.512 141.378 101.751C 141.46501 101.643 141.552 101.447 141.748 101.491C 141.9 101.447 141.94301 101.643 141.9 101.81699L141.9 101.81699L141.29199 104.05499L143.03 104.05499L142.921 104.74999zM147.093 111.117C 146.245 112.398994 145.29001 113.593994 144.073 113.593994C 143.052 113.593994 143.052 112.63799 143.052 112.246994C 143.052 111.22599 144.768 105.838 144.768 105.229C 144.768 104.771996 144.59401 104.663994 143.399 104.663994L143.399 104.663994L143.399 104.315994C 144.224 104.272995 146.02701 103.924995 146.875 103.772995L146.875 103.772995L146.94 103.81699L145.028 110.812996C 144.941 111.117 144.68 111.98599 144.68 112.246994C 144.68 112.398994 144.83199 112.57299 145.028 112.57299C 145.289 112.57299 145.919 112.13799 146.809 110.87799L146.809 110.87799L147.093 111.11699zM146.658 101.448C 146.115 101.448 145.615 101.078995 145.615 100.318C 145.615 99.558 146.115 99.145004 146.636 99.145004C 147.353 99.145004 147.722 99.86201 147.722 100.340004C 147.723 100.774 147.375 101.448006 146.658 101.448006zM154.198 104.229C 155.24 104.229 155.719 105.185 155.719 106.314995C 155.719 108.63999 154.00299 113.13699 151.526 113.13699C 150.44 113.13699 149.788 112.354996 149.788 111.116C 149.78699 108.55299 151.76399 104.229 154.198 104.229zM154.34999 103.771996C 151.178 103.771996 147.96199 107.270996 147.96199 110.464C 147.96199 112.267 148.93999 113.591995 151.243 113.591995C 154.567 113.591995 157.54399 109.659996 157.54399 106.98699C 157.54298 105.55399 156.87 103.771996 154.34999 103.771996z" stroke="none" fill="#000000" fill-rule="nonzero" />
    <path d="M167.017 111.095C 165.931 112.551 165.17 113.551 163.997 113.551C 162.997 113.551 162.954 112.899 162.954 112.269005C 162.954 111.748 164.562 106.44601 164.562 105.577C 164.562 105.186005 164.43199 104.882 164.019 104.882C 162.976 104.882 161.607 106.75101 160.825 107.967C 159.825 109.466 159.543 110.4 158.652 113.355L158.652 113.355L157.023 113.355C 157.69699 110.9 159.152 105.815 159.152 105.359C 159.152 105.033005 158.935 104.794 157.76099 104.794L157.76099 104.794L157.76099 104.446C 158.93399 104.229 160.10799 104.011 161.28099 103.771996L161.28099 103.771996L161.346 103.815994L159.95499 108.356995L159.99799 108.40099C 161.01898 106.79299 163.01799 103.772995 164.82199 103.772995C 165.82199 103.772995 166.32098 104.295 166.32098 105.20799C 166.32098 106.14199 164.58298 111.508995 164.58298 112.160995C 164.58298 112.48699 164.88698 112.53 164.93098 112.53C 165.36598 112.53 165.90898 111.835 166.71298 110.813995L166.71298 110.813995L167.01698 111.09499L167.017 111.095zM169.124 110.986C 169.124 109.03 171.07999 104.251 173.622 104.251C 174.252 104.251 174.86 104.664 174.86 105.707C 174.86 107.836 172.731 112.529 170.428 112.529C 169.84099 112.529 169.124 112.138 169.124 110.986zM177.01099 110.964C 176.03299 111.92 175.59799 112.464 175.27298 112.464C 175.09898 112.464 174.96898 112.334 174.96898 112.181C 174.96898 111.508 176.96797 104.098 177.03297 103.838L177.03297 103.838L176.88098 103.772995L175.55498 103.924995L175.48997 103.99L175.27298 104.947L175.22998 104.947C 175.16498 104.338 174.44798 103.772995 173.51398 103.772995C 170.62398 103.772995 167.29997 107.836 167.29997 111.03C 167.29997 111.659996 167.36497 113.593 169.53798 113.593C 170.84097 113.593 171.99298 112.941 173.79597 110.291L173.79597 110.291L173.83897 110.334C 173.49097 111.659 173.38298 112.137 173.38298 112.637C 173.38298 113.006004 173.38298 113.571 174.29498 113.571C 175.22998 113.571 175.96799 112.789 177.27199 111.181L177.27199 111.181L177.01099 110.964zM181.943 110.877C 180.83499 112.549995 179.98799 113.593 178.64099 113.593C 177.685 113.593 177.59799 112.855 177.59799 112.246C 177.59799 111.79 180.74799 100.448 180.74799 99.992004C 180.74799 99.427 179.83499 99.427 179.26999 99.449005L179.26999 99.449005L179.26999 99.101006C 180.41013 98.96909 181.5419 98.77312 182.65999 98.51401L182.65999 98.51401L182.76799 98.62301L179.48698 111.20301C 179.44398 111.39801 179.26999 111.98501 179.26999 112.224014C 179.26999 112.35401 179.26999 112.65901 179.596 112.65901C 180.13899 112.65901 180.59499 112.05101 181.65999 110.682014L181.65999 110.682014L181.943 110.877014zM184.99 99.004L185.21301 99.004C 185.42001 99.004 185.58801 99.106995 185.58801 99.417C 185.58801 99.705 185.48502 99.911 185.21802 99.911L185.21802 99.911L184.99002 99.911L184.99002 99.004005zM184.382 98.981995C 184.64801 99.008995 184.643 99.004 184.643 99.243L184.643 99.243L184.643 100.54099C 184.643 100.773994 184.64801 100.773994 184.382 100.801994L184.382 100.801994L184.382 100.882996L185.251 100.882996L185.251 100.801994C 184.98001 100.774994 184.99 100.774994 184.99 100.54099L184.99 100.54099L184.99 100.008995L185.24501 100.008995C 185.587 100.51399 185.723 100.882996 185.897 100.882996L185.897 100.882996L186.239 100.882996L186.239 100.83399C 186.135 100.757996 185.97299 100.57399 185.832 100.37799L185.832 100.37799L185.522 99.95399C 185.767 99.872986 185.951 99.665985 185.951 99.389984C 185.951 99.052986 185.65201 98.900986 185.332 98.900986L185.332 98.900986L184.381 98.900986L184.381 98.98199zM187.087 99.922C 187.087 98.895 186.289 98.059 185.25601 98.059C 184.76251 98.05764 184.28899 98.25384 183.94106 98.603836C 183.59312 98.95383 183.39973 99.428505 183.404 99.922C 183.404 100.948 184.214 101.773994 185.25601 101.773994C 186.28902 101.773994 187.087 100.948 187.087 99.922zM186.78801 99.922C 186.78801 100.784996 186.10901 101.546 185.25601 101.546C 184.38701 101.546 183.70302 100.784996 183.70302 99.922C 183.70302 99.058 184.38202 98.286995 185.25601 98.286995C 186.115 98.286995 186.78801 99.05299 186.78801 99.922z" stroke="none" fill="#000000" fill-rule="nonzero" />
	<g>
        <path d="M53.504 119.081C 65.933 119.142 76.125 108.949005 76.038 96.547C 76.124 83.806 65.933 73.614 53.504 73.618L53.504 73.618L28.599 73.618C 16.021 73.615 5.8290005 83.806 5.6690006 96.547C 5.8290005 108.949 16.021 119.141 28.598001 119.08099L28.598001 119.08099L53.504 119.08099L53.504 119.081z" stroke="none" fill="#2D4F9E" fill-rule="nonzero" />
        <path d="M7.251 96.547C 7.375 84.66 16.874 75.16 28.599 75.2C 40.311 75.159996 49.811 84.659996 49.946 96.548C 49.811 108.097 40.310997 117.597 28.598999 117.5C 16.873999 117.597 7.374998 108.096 7.2509995 96.547L7.2509995 96.547L7.251 96.547z" stroke="none" fill="#FFFFFF" fill-rule="nonzero" />
        <path d="M23.854 83.897C 18.941 86.114006 15.255 90.854004 15.157001 96.547005C 15.255 102.026 18.765001 106.852005 23.854 108.802L23.854 108.802L23.854 83.897zM33.342 108.803C 38.419 106.853004 41.928 102.026 42.038998 96.548004C 41.927998 90.732 38.418 85.90501 33.342 83.898L33.342 83.898L33.342 108.803z" stroke="none" fill="#2D4F9E" fill-rule="nonzero" />
	</g>
    <path d="M0 0L192.756 0L192.756 192.756L0 192.756L0 0z" stroke="none" fill="none" />
</g>
</svg>