<?xml version="1.0" standalone="no"?>
<!DOCTYPE svg PUBLIC "-//W3C//DTD SVG 1.0//EN" "http://www.w3.org/TR/2001/REC-SVG-20010904/DTD/svg10.dtd">
<svg xmlns="http://www.w3.org/2000/svg" xmlns:xlink="http://www.w3.org/1999/xlink" id="body_1" width="110" height="34" viewBox="0 0 107 160">

<g transform="matrix(1.0375812 0 0 1.0375812 0 0)">
	<g>
        <path d="M8.504 151.949L184.252 151.949L184.252 40.807L8.504 40.807L8.504 151.949z" stroke="none" fill="#1B3771" fill-rule="nonzero" />
        <path d="M96.283 131.803C 106.027 123.006 112.173996 110.23699 112.173996 96.047C 112.173996 81.85899 106.028 69.089 96.283 60.197998C 87.77 52.440998 76.419 47.711998 63.934 47.711998C 37.259 47.711998 15.598 69.373 15.598 96.047C 15.598 122.72099 37.259 144.287 63.934 144.287C 76.419 144.287 87.770996 139.559 96.283 131.80301L96.283 131.80301L96.283 131.803z" stroke="none" fill="#3A9BD9" fill-rule="nonzero" />
        <path d="M96.283 131.803C 106.027 123.006 112.173996 110.23699 112.173996 96.047C 112.173996 81.85899 106.028 69.089 96.283 60.197998L96.283 60.197998L96.283 131.80301L96.283 131.803z" stroke="none" fill="#3A9BD9" fill-rule="nonzero" />
        <path d="M128.729 47.712C 116.243004 47.712 104.89101 52.441 96.284004 60.198C 94.5802 61.80718 92.96955 63.512325 91.46001 65.305L91.46001 65.305L101.202 65.305C 102.528 66.913 103.757 68.71 104.89101 70.413L104.89101 70.413L87.771 70.413C 86.75285 72.0742 85.80597 73.77812 84.93301 75.520004L84.93301 75.520004L107.63501 75.520004C 108.39101 77.22301 109.14901 78.925 109.71501 80.628006L109.71501 80.628006L82.946 80.628006C 82.37348 82.33335 81.89972 84.07016 81.527 85.83001L81.527 85.83001L111.134 85.83001C 111.82145 89.191956 112.16953 92.61449 112.173004 96.046005C 112.173004 101.343 111.32101 106.546005 109.714005 111.37L109.714005 111.37L82.946 111.37C 83.525955 113.1031 84.18872 114.80741 84.932 116.477005L84.932 116.477005L107.634 116.477005C 106.782005 118.18001 105.931 119.977005 104.89 121.58401L104.89 121.58401L87.77 121.58401C 88.89125 123.36208 90.12336 125.067795 91.459 126.69101L91.459 126.69101L101.201 126.69101C 99.68517 128.50876 98.04169 130.21606 96.283 131.8C 104.89 139.556 116.242 144.284 128.728 144.284C 155.402 144.284 176.968 122.717995 176.968 96.04399C 176.96901 69.37299 155.40201 47.71199 128.729 47.71199L128.729 47.71199L128.729 47.712z" stroke="none" fill="#CC2131" fill-rule="nonzero" />
        <path d="M170.82 122.91C 170.82 122.05801 171.48201 121.396 172.33401 121.396C 173.18602 121.396 173.84802 122.05801 173.84802 122.91C 173.84802 123.762 173.18602 124.517006 172.33401 124.517006C 171.48201 124.517006 170.82 123.76201 170.82 122.91zM172.33401 124.14101C 172.99602 124.14101 173.56401 123.573006 173.56401 122.911C 173.56401 122.249 172.99602 121.776 172.33401 121.776C 171.67201 121.776 171.10402 122.249 171.10402 122.911C 171.10402 123.573006 171.67201 124.14101 172.33401 124.14101zM172.14502 123.57201L171.76602 123.57201L171.76602 122.24801L172.33401 122.24801C 172.52301 122.24801 172.61702 122.24801 172.71301 122.34401C 172.807 122.34401 172.90102 122.53301 172.90102 122.62701C 172.90102 122.81601 172.80702 122.91 172.71301 123.006004L172.71301 123.006004L172.90102 123.57201L172.52402 123.57201L172.33502 123.09901L172.14603 123.09901L172.14603 123.57201L172.14502 123.57201zM172.14502 122.81601L172.52303 122.81601C 172.52303 122.81601 172.61702 122.72001 172.61702 122.62701L172.61702 122.62701L172.52303 122.533005C 172.42703 122.437004 172.33403 122.437004 172.33403 122.437004L172.33403 122.437004L172.14503 122.437004L172.14503 122.816z" stroke="none" fill="#CC2131" fill-rule="nonzero" />
        <path d="M56.367 109.479L50.313 109.479L53.907 90.656L45.678 109.479L40.57 109.479L39.53 90.75L35.557 109.479004L30.071 109.479004L34.706 84.98L44.259003 84.98L44.354004 100.115005L50.975002 84.98L61.096 84.98L56.367 109.479004L56.367 109.479zM123.525 109.195C 121.822 109.668 120.593 109.857 119.173004 109.857C 116.146 109.857 114.444 108.343 114.444 105.505005C 114.444 104.939 114.538 104.275 114.633 103.70801L114.633 103.70801L115.01 101.72201L115.295006 100.20801L118.037 84.979004L123.996 84.979004L123.144005 89.519005L126.171005 89.519005L125.41501 94.343L122.29201 94.343L120.685005 102.667C 120.685005 103.046 120.591 103.329 120.591 103.519C 120.591 104.56 121.253006 104.938995 122.671005 104.938995C 123.33301 104.938995 123.90101 104.938995 124.27801 104.74999L124.27801 104.74999L123.52501 109.19499zM99.689 95.858C 99.689 98.316 101.107 100.115005 104.228004 101.344C 106.783005 102.385 107.162 102.668 107.162 103.614C 107.162 104.844 106.027 105.413 103.662 105.413C 101.769005 105.413 100.162 105.128 98.176 104.561005L98.176 104.561005L97.324005 109.19601L97.607 109.19601L98.742004 109.38501C 99.267784 109.518 99.80872 109.58154 100.351006 109.57401C 101.769005 109.668015 102.90401 109.76202 103.662 109.76202C 110.094 109.76202 113.025 107.682014 113.025 103.141014C 113.025 100.39902 111.796005 98.791016 108.769005 97.56101C 106.214005 96.61601 105.93101 96.33101 105.93101 95.38501C 105.93101 94.34401 106.97201 93.77701 108.86301 93.77701C 110.09301 93.77701 111.701004 93.87201 113.310005 94.061005L113.310005 94.061005L114.16 89.520004C 112.553 89.23701 110.187004 89.047005 108.769005 89.047005C 101.95901 89.047005 99.594 92.16901 99.689 95.858zM75.852 109.479L70.839 109.479L70.933 107.398994C 69.42 109.006 67.339 109.76199 64.596 109.76199C 61.38 109.76199 59.11 107.58599 59.11 104.370995C 59.11 99.547 62.988 96.70899 69.704 96.70899C 70.366005 96.70899 71.218 96.70899 72.163 96.80499C 72.352005 96.14199 72.352005 95.857994 72.352005 95.57499C 72.352005 94.25099 71.312004 93.68299 68.47401 93.68299C 66.771 93.68299 64.880005 93.96699 63.555008 94.25099L63.555008 94.25099L62.704006 94.53499L62.136005 94.62999L62.988007 90.18399C 66.01501 89.33299 68.00101 89.04899 70.17601 89.04899C 75.37901 89.04899 78.12201 91.12999 78.12201 94.91399C 78.12201 95.95499 78.02801 96.61699 77.55501 98.886986L77.55501 98.886986L76.325005 105.886986L76.136 107.21098L75.947 108.25198L75.852 108.91399L75.852 109.47899zM71.784996 100.588C 71.12299 100.492 70.839 100.492 70.366 100.492C 66.961 100.492 65.257996 101.533 65.257996 103.519C 65.257996 104.749 66.10999 105.505 67.434 105.505C 69.893 105.506 71.689995 103.52 71.784996 100.588zM95.527 109.006C 93.52845 109.58011 91.458374 109.86698 89.379 109.857994C 82.662994 109.857994 79.162994 106.73699 79.162994 100.871994C 79.162994 94.062 83.60899 89.048 89.662994 89.048C 94.675995 89.048 97.798 91.885994 97.798 96.237C 97.798 97.751 97.60899 99.169 97.042 101.155L97.042 101.155L85.122 101.155C 85.027 101.534 85.027 101.628 85.027 101.817C 85.027 104.088 86.824 105.317 90.324 105.317C 92.5 105.317 94.391 104.94 96.567 103.993004L96.567 103.993004L95.527 109.006004zM92.689 97.182L92.689 96.142C 92.689 94.534 91.648 93.588 89.851006 93.588C 87.95901 93.588 86.54001 94.818 85.97301 97.182L85.97301 97.182L92.68901 97.182zM159.658 100.398C 158.806 107.019005 154.172 109.951004 148.02301 109.951004C 141.212 109.951004 138.47002 105.885 138.47002 100.77701C 138.47002 93.77701 143.10501 88.95201 150.29402 88.95201C 156.53603 88.95201 159.84702 92.92501 159.84702 97.93901C 159.84802 99.16801 159.84802 99.26401 159.65802 100.39801zM153.60501 98.033005C 153.60501 95.952 152.753 93.966 150.294 93.966C 147.26701 93.966 145.28 97.65401 145.28 100.777C 145.28 103.519 146.604 105.316 148.78 105.316C 150.104 105.316 152.846 103.519005 153.415 100.398C 153.51 99.736 153.605 98.885 153.605 98.033005z" stroke="none" fill="#1B3771" fill-rule="nonzero" />
        <path d="M160.32 106.451C 160.32 105.601 161.078 104.938995 161.929 104.938995C 162.779 104.938995 163.44301 105.601 163.44301 106.451C 163.44301 107.30299 162.779 108.06 161.929 108.06C 161.078 108.061 160.32 107.30299 160.32 106.451zM161.93001 107.682C 162.59201 107.682 163.065 107.114 163.065 106.451996C 163.065 105.78999 162.592 105.31699 161.93001 105.31699C 161.26802 105.31699 160.70001 105.78999 160.70001 106.451996C 160.70001 107.114 161.268 107.682 161.93001 107.682zM161.74 107.113L161.36101 107.113L161.36101 105.789L161.929 105.789C 162.117 105.789 162.212 105.789 162.306 105.885C 162.402 105.979004 162.495 106.074005 162.495 106.168C 162.495 106.357 162.401 106.547 162.21199 106.547L162.21199 106.547L162.495 107.113L162.116 107.113L161.928 106.64L161.739 106.64L161.739 107.113L161.74 107.113zM161.74 106.357L162.117 106.357L162.117 106.074L161.74 106.074L161.74 106.356995zM57.88 108.061L51.826 108.061L55.420002 89.237L47.191 108.061L41.705 108.061L40.759003 89.33099L37.165 108.06099L31.679 108.06099L36.313 83.56099L45.772 83.56099L46.246 98.69499L52.866997 83.56099L62.608997 83.56099L57.879997 108.06099zM125.039 107.775C 123.336 108.25 122.107 108.437004 120.687004 108.437004C 117.66 108.437004 115.95801 106.925 115.95801 104.087006C 115.95801 103.519005 116.05201 102.952 116.14601 102.29001L116.14601 102.29001L116.52501 100.30201L116.81001 98.79001L119.55201 83.56001L125.51101 83.56001L124.65901 88.10101L127.780014 88.10101L126.930016 92.92501L123.807014 92.92501L122.293015 101.25001C 122.19901 101.62701 122.10501 101.91201 122.10501 102.102005C 122.10501 103.14101 122.76701 103.614006 124.18501 103.614006C 124.847015 103.614006 125.415016 103.520004 125.792015 103.426L125.792015 103.426L125.03902 107.775z" stroke="none" fill="#FFFFFF" fill-rule="nonzero" />
        <path d="M140.457 93.872L140.363 93.21L141.498 90.088C 141.213 90.088 141.119 90.088 141.025 89.993C 140.73999 89.993 140.54999 89.898994 140.54999 89.898994L140.54999 89.898994L139.984 89.898994C 137.998 89.898994 136.57799 90.74999 134.687 93.115L134.687 93.115L135.349 89.52L129.105 89.52L125.41699 109.478L131.37599 109.478C 132.228 104.842995 132.605 102.28999 133.077 100.115C 133.83499 96.519 136.483 94.911995 138.47 95.29C 138.659 95.29 138.849 95.29 139.132 95.384L139.132 95.384L139.511 95.573006L140.457 93.87201L140.457 93.872z" stroke="none" fill="#1B3771" fill-rule="nonzero" />
        <path d="M142.537 88.291C 142.064 88.102 141.97101 88.102 141.875 88.102C 141.592 88.006996 141.402 88.006996 141.402 87.912994L141.402 87.912994L140.73999 87.912994C 138.754 87.912994 137.33598 88.76399 135.53899 91.129L135.53899 91.129L136.10498 88.102L130.61899 88.102L126.930984 108.061L132.98398 108.061C 135.15997 95.857994 136.01097 93.683 138.94298 93.683C 139.13197 93.683 139.41599 93.778 139.70097 93.778L139.70097 93.778L140.36298 93.967L142.53697 88.291L142.537 88.291zM101.201 94.439C 101.201 96.898 102.620995 98.695 105.838 99.926C 108.297 100.965004 108.673996 101.25 108.673996 102.196C 108.673996 103.426 107.538994 103.993 105.175995 103.993C 103.37699 103.993 101.675995 103.71 99.689995 103.141L99.689995 103.141L98.93199 107.776L99.216995 107.776L100.256 108.061005C 100.634995 108.061005 101.201 108.15501 101.865 108.15501C 103.283 108.34401 104.418 108.34401 105.269 108.34401C 111.606995 108.34401 114.633995 106.26401 114.633995 101.72301C 114.633995 98.98101 113.40399 97.37101 110.282 96.142006C 107.727 95.19601 107.444 94.91301 107.444 93.967C 107.444 92.926 108.485 92.359 110.471 92.359C 111.606 92.359 113.309 92.454 114.821 92.643L114.821 92.643L115.673 88.103C 114.065994 87.819 111.7 87.725 110.376 87.725C 103.566 87.723 101.201 90.75 101.201 94.438995zM77.366 108.061L72.447 108.061L72.542 105.979C 71.028 107.586 68.947 108.343994 66.204 108.343994C 62.988003 108.343994 60.718002 106.16799 60.718002 102.952995C 60.718002 98.129 64.596 95.28999 71.313 95.28999C 71.975006 95.28999 72.826004 95.28999 73.772 95.383995C 73.961006 94.72199 73.961006 94.437996 73.961006 94.155C 73.961006 92.831 72.920006 92.358 70.08301 92.358C 68.380005 92.358 66.489006 92.547005 65.16501 92.831L65.16501 92.831L64.31301 93.115L63.74601 93.21L64.59701 88.764C 67.62401 88.006996 69.51501 87.723 71.78601 87.723C 76.988014 87.723 79.63701 89.709 79.63701 93.493C 79.63701 94.534 79.54301 95.29099 79.16401 97.465L79.16401 97.465L77.93501 104.561L77.74601 105.78999L77.55701 106.83099L77.463005 107.493L77.366005 108.061zM73.014 99.168C 72.352 99.074 72.068 99.074 71.69 99.074C 68.285 99.074 66.582 100.115 66.582 102.101C 66.582 103.329994 67.339005 104.181 68.663 104.181C 71.123 104.182 72.919 102.102 73.014 99.168zM97.135 107.586C 95.054 108.154 93.068 108.437996 90.987 108.437996C 84.270996 108.437996 80.770996 105.31699 80.770996 99.453995C 80.770996 92.642 85.215996 87.629 91.27 87.629C 96.188995 87.629 99.311 90.466995 99.311 94.818C 99.311 96.331 99.121994 97.751 98.648994 99.737L98.648994 99.737L86.635 99.737L86.635 100.399C 86.635 102.669 88.338005 103.899 91.838005 103.899C 93.9801 103.91178 96.10289 103.493484 98.08 102.669L98.08 102.669L97.135 107.586zM93.918 95.763L93.918 94.722C 93.918 93.114 92.877 92.168 91.081 92.168C 89.189 92.168 87.865 93.492 87.297005 95.762L87.297005 95.762L93.91801 95.762L93.91801 95.763zM161.268 98.98C 160.321 105.601006 155.686 108.533005 149.53801 108.533005C 142.82301 108.533005 140.07901 104.465004 140.07901 99.357C 140.07901 92.357 144.714 87.533005 151.90302 87.533005C 158.14502 87.533005 161.45601 91.506004 161.45601 96.519005C 161.455 97.75001 161.455 97.844 161.268 98.98zM155.02301 96.426C 155.02301 94.344 154.171 92.453 151.712 92.453C 148.68501 92.453 146.794 96.047005 146.794 99.264C 146.794 101.912 148.11801 103.709 150.19801 103.709C 151.52202 103.709 154.36002 101.912 154.83301 98.885C 155.02301 98.129005 155.02301 97.277 155.02301 96.426z" stroke="none" fill="#FFFFFF" fill-rule="nonzero" />
	</g>
</g>
</svg>