<?xml version="1.0" standalone="no"?>
<!DOCTYPE svg PUBLIC "-//W3C//DTD SVG 1.0//EN" "http://www.w3.org/TR/2001/REC-SVG-20010904/DTD/svg10.dtd">
<svg xmlns="http://www.w3.org/2000/svg" xmlns:xlink="http://www.w3.org/1999/xlink" id="body_1" width="130" height="28" viewBox="0 0 107 110">

<g transform="matrix(0.6768602 0 0 0.6768602 -0 0.115901574)">
    <path d="M281.252 0.478L208.488 0.459L208.468 0.459C 208.411 0.459 208.35701 0.46899998 208.302 0.46899998C 198.306 0.775 185.855 8.793 183.588 18.678999L183.588 18.678999L149.177 170.942C 146.909 180.921 153.077 189.04001 163.001 189.189L163.001 189.189L239.444 189.189C 249.215 188.706 258.713 180.78 260.941 171.006L260.941 171.006L295.354 18.74199C 297.658 8.663 291.342 0.478 281.252 0.478" stroke="none" fill="#01798A" fill-rule="nonzero" />
    <path d="M149.178 170.941L183.58899 18.677994C 185.856 8.792 198.307 0.774 208.303 0.468L208.303 0.468L179.371 0.45L127.246 0.44C 117.222 0.645 104.61 8.719 102.343 18.679L102.343 18.679L67.922 170.941C 65.645996 180.92 71.824 189.039 81.741 189.18799L81.741 189.18799L163.002 189.18799C 153.078 189.03899 146.91 180.91998 149.178 170.941" stroke="none" fill="#024381" fill-rule="nonzero" />
    <path d="M67.922 170.941L102.343 18.677994C 104.61 8.718 117.222 0.644 127.246 0.439L127.246 0.439L60.471 0.422C 50.391 0.422 37.467003 8.589 35.163002 18.678001L35.163002 18.678001L0.742 170.941C 0.533 171.87 0.41599998 172.78099 0.34699997 173.67099L0.34699997 173.67099L0.34699997 176.495C 1.021 183.769 6.576 189.066 14.561 189.187L14.561 189.187L81.741 189.187C 71.824 189.039 65.645996 180.92 67.922 170.941" stroke="none" fill="#DD0228" fill-rule="nonzero" />
    <path d="M128.654 111.389L129.91801 111.389C 131.07901 111.389 131.86002 110.998 132.22702 110.227L132.22702 110.227L135.51102 105.312996L144.30402 105.312996L142.47102 108.545L153.01402 108.545L151.67603 113.498L139.13 113.498C 137.685 115.672005 135.906 116.693 133.768 116.572L133.768 116.572L127.233 116.572L128.654 111.389zM127.21001 118.486L150.311 118.486L148.838 123.866L139.547 123.866L138.12999 129.058L147.16998 129.058L145.69798 134.438L136.65799 134.438L134.55798 142.11101C 134.03798 143.39401 134.72198 143.97 136.59798 143.84001L136.59798 143.84001L143.96498 143.84001L142.59998 148.84001L128.45497 148.84001C 125.77397 148.84001 124.85397 147.30602 125.69497 144.23102L125.69497 144.23102L128.37997 134.43903L122.601974 134.43903L124.06998 129.05902L129.84898 129.05902L131.26599 123.86702L125.74199 123.86702L127.20999 118.48602zM164.08 105.275L163.717 108.425C 163.717 108.425 168.07399 105.15401 172.03099 105.15401L172.03099 105.15401L186.65399 105.15401L181.062 125.39801C 180.59799 127.71201 178.609 128.863 175.097 128.863L175.097 128.863L158.522 128.863L154.64 143.078C 154.415 143.84 154.732 144.23 155.568 144.23L155.568 144.23L158.82999 144.23L157.63098 148.64299L149.33998 148.64299C 146.15797 148.64299 144.83398 147.68599 145.35898 145.76299L145.35898 145.76299L156.32997 105.27499L164.07997 105.27499zM176.464 110.998L163.41101 110.998L161.84901 116.461C 161.84901 116.461 164.02301 114.892 167.65602 114.836C 171.27902 114.779 175.41402 114.836 175.41402 114.836L175.41402 114.836L176.46402 110.998zM171.73401 123.67C 172.699 123.800995 173.24 123.42 173.30402 122.518L173.30402 122.518L174.10301 119.639L161.031 119.639L159.93501 123.67L171.73401 123.67zM162.91801 130.211L170.45302 130.211L170.31201 133.472L172.31801 133.472C 173.33202 133.472 173.835 133.147 173.835 132.506L173.835 132.506L174.429 130.397L180.692 130.397L179.856 133.472C 179.14801 136.036 177.27301 137.374 174.225 137.505L174.225 137.505L170.211 137.505L170.192 143.078C 170.119 143.97101 170.925 144.42601 172.588 144.42601L172.588 144.42601L176.36 144.42601L175.143 148.84001L166.09401 148.84001C 163.557 148.96 162.313 147.75201 162.34001 145.18802L162.34001 145.18802L162.91801 130.21101zM71.61 78.305C 70.588 83.313 68.219 87.159 64.544 89.89C 60.902 92.575 56.205997 93.922 50.454998 93.922C 45.043 93.922 41.075996 92.547 38.544 89.787994C 36.788 87.827995 35.914997 85.338 35.914997 82.327995C 35.914997 81.08299 36.063995 79.744995 36.360996 78.30599L36.360996 78.30599L42.487995 48.762993L51.740997 48.762993L45.699 77.97C 45.526173 78.703606 45.442238 79.455345 45.449 80.209C 45.439003 81.705 45.811 82.931 46.563 83.888C 47.659 85.31 49.438 86.015 51.915 86.015C 54.762 86.015 57.108 85.319 58.929 83.915C 60.75 82.521 61.939 80.543 62.473 77.969L62.473 77.969L68.534996 48.760002L77.742 48.760002L71.61 78.305zM110.472 66.682L117.719 66.682L112.042 93.048996L104.809 93.048996L110.472 66.68199zM112.753 57.075993L120.064995 57.075993L118.699 63.475994L111.388 63.475994L112.753 57.075993zM124.134 91.042C 122.238 89.23 121.281006 86.787 121.272 83.684C 121.272 83.154 121.304 82.550995 121.375 81.891C 121.445 81.222 121.533 80.572 121.658 79.968C 122.517 75.685005 124.348 72.285 127.167 69.776C 129.982 67.258 133.378 65.995 137.355 65.995C 140.611 65.995 143.194 66.906006 145.08499 68.726006C 146.97499 70.55701 147.922 73.02701 147.922 76.16801C 147.922 76.70601 147.881 77.32901 147.811 77.99801C 147.72974 78.657555 147.62904 79.314415 147.509 79.96801C 146.669 84.18601 144.84401 87.54901 142.024 90.01101C 139.204 92.49101 135.817 93.726006 131.869 93.726006C 128.599 93.727005 126.025 92.83501 124.134 91.04201M137.945 85.82101C 139.223 84.437004 140.13701 82.337006 140.695 79.54101C 140.779 79.10401 140.85301 78.64901 140.899 78.19401C 140.945 77.74801 140.964 77.33001 140.964 76.949005C 140.964 75.323006 140.55 74.060005 139.71901 73.16801C 138.893 72.267006 137.718 71.82101 136.199 71.82101C 134.192 71.82101 132.556 72.52601 131.27501 73.93901C 129.983 75.35201 129.06702 77.488014 128.49101 80.33101C 128.41202 80.768005 128.34702 81.20501 128.28702 81.63201C 128.24101 82.06901 128.22702 82.47701 128.23602 82.849014C 128.23602 84.46601 128.65002 85.71101 129.48102 86.59302C 130.30801 87.47602 131.47801 87.91202 133.01602 87.91202C 135.03302 87.91102 136.66702 87.21402 137.94502 85.821014" stroke="none" fill="#FFFFFF" fill-rule="nonzero" />
    <path d="M208.469 0.459L179.371 0.45L208.30301 0.46899998C 208.35701 0.46899998 208.412 0.459 208.46901 0.459" stroke="none" fill="#E02F41" fill-rule="nonzero" />
    <path d="M179.371 0.45L127.646 0.422C 127.51601 0.422 127.381004 0.431 127.246 0.44L127.246 0.44L179.371 0.45" stroke="none" fill="#2E4F7D" fill-rule="nonzero" />
    <path d="M194.942 111.611L196.689 105.461L205.525 105.461L205.144 107.719C 205.144 107.719 209.65799 105.461 212.91 105.461L212.91 105.461L223.835 105.461L222.09901 111.611L220.38002 111.611L212.13902 140.617L213.85802 140.617L212.22302 146.377L210.50403 146.377L209.78903 148.87599L201.23203 148.87599L201.94603 146.377L185.06602 146.377L186.71103 140.617L188.40202 140.617L196.65102 111.61101L194.94202 111.61101L194.942 111.611zM204.475 111.611L202.227 119.461C 202.227 119.461 206.07501 117.984 209.391 117.566C 210.123 114.826004 211.08 111.611 211.08 111.611L211.08 111.611L204.475 111.611zM201.186 123.141L198.929 131.364C 198.929 131.364 203.193 129.26399 206.119 129.088C 206.964 125.909996 207.81 123.142 207.81 123.142L207.81 123.142L201.186 123.142zM202.839 140.617L204.529 134.65201L197.93501 134.65201L196.23401 140.617L202.839 140.617zM224.207 105.08L232.514 105.08L232.867 108.145004C 232.811 108.925 233.276 109.298004 234.261 109.298004L234.261 109.298004L235.729 109.298004L234.244 114.490005L228.139 114.490005C 225.809 114.61001 224.61 113.719 224.498 111.796005L224.498 111.796005L224.207 105.08zM221.773 116.22L248.678 116.22L247.099 121.795L238.533 121.795L237.06401 126.978L245.62302 126.978L244.03302 132.543L234.50201 132.543L232.34601 135.805L237.01201 135.805L238.089 142.336C 238.21701 142.986 238.793 143.302 239.779 143.302L239.779 143.302L241.227 143.302L239.705 148.68001L234.576 148.68001C 231.918 148.811 230.545 147.919 230.432 145.996L230.432 145.996L229.19601 140.031L224.95102 146.377C 223.94702 148.17 222.40402 149.006 220.32402 148.87599L220.32402 148.87599L212.49202 148.87599L214.01501 143.49599L216.45901 143.49599C 217.46301 143.49599 218.29802 143.05098 219.05002 142.14899L219.05002 142.14899L225.69502 132.54298L217.12903 132.54298L218.71703 126.97798L228.00803 126.97798L229.48503 121.79498L220.18604 121.79498L221.77304 116.219986zM80.134 66.673L86.670006 66.673L85.922005 70.481995L86.86001 69.395C 88.97901 67.128 91.55201 66.004 94.59001 66.004C 97.34001 66.004 99.32301 66.803 100.569016 68.409996C 101.79501 70.017 102.13001 72.238 101.54902 75.09L101.54902 75.09L97.94802 93.058L91.23102 93.058L94.48202 76.772C 94.81702 75.090004 94.724014 73.836006 94.208015 73.027C 93.69801 72.219 92.722015 71.82 91.31402 71.82C 89.58602 71.82 88.13202 72.358 86.94702 73.427C 85.75802 74.505005 84.97302 76.001 84.58702 77.905L84.58702 77.905L81.59102 93.058L74.86 93.058L80.134 66.673zM155.085 66.673L161.62701 66.673L160.88402 70.481995L161.81102 69.395C 163.93202 67.128 166.51402 66.004 169.54301 66.004C 172.29301 66.004 174.27902 66.803 175.51602 68.409996C 176.73502 70.017 177.08603 72.238 176.49202 75.09L176.49202 75.09L172.90501 93.058L166.17902 93.058L169.43202 76.772C 169.76602 75.090004 169.67203 73.836006 169.16103 73.027C 168.63103 72.219 167.67403 71.82 166.27203 71.82C 164.54303 71.82 163.09503 72.358 161.89603 73.427C 160.70703 74.505005 159.91702 76.001 159.54602 77.905L159.54602 77.905L156.53502 93.058L149.81302 93.058L155.08502 66.673zM187.418 50.321L206.408 50.321C 210.058 50.321 212.88301 51.148 214.824 52.773C 216.75601 54.419 217.723 56.778 217.723 59.852997L217.723 59.852997L217.723 59.945995C 217.723 60.530994 217.68501 61.190994 217.62901 61.905994C 217.53235 62.63206 217.4086 63.35417 217.25801 64.07099C 216.421 68.13999 214.48001 71.410995 211.48001 73.89099C 208.46802 76.36199 204.90201 77.606995 200.796 77.606995L200.796 77.606995L190.612 77.606995L187.463 93.05699L178.646 93.05699L187.418 50.32099zM192.164 70.175995L200.60901 70.175995C 202.81001 70.175995 204.557 69.663994 205.83202 68.65199C 207.09602 67.62999 207.93202 66.06899 208.39401 63.950993C 208.46802 63.559994 208.51501 63.206993 208.57101 62.881992C 208.59901 62.575993 208.63602 62.267994 208.63602 61.971992C 208.63602 60.456993 208.09802 59.360992 207.01901 58.672993C 205.94202 57.97499 204.251 57.641994 201.91002 57.641994L201.91002 57.641994L194.73802 57.641994L192.16402 70.175995zM257.189 98.159C 254.401 104.086 251.745 107.541 250.185 109.147995C 248.623 110.73799 245.52899 114.435 238.078 114.156L238.078 114.156L238.72101 109.632996C 244.99101 107.7 248.38101 98.993996 250.315 95.13899L250.315 95.13899L248.01001 66.746994L252.86002 66.68199L256.92902 66.68199L257.367 84.49199L264.993 66.68199L272.71503 66.68199L257.18903 98.15899zM235.599 68.828L232.532 70.937004C 229.327 68.429 226.401 66.87701 220.75299 69.497C 213.06 73.064 206.631 100.426 227.814 91.414L227.814 91.414L229.021 92.845L237.355 93.059L242.828 68.197L235.599 68.827995zM230.859 82.42C 229.521 86.368996 226.53099 88.979 224.189 88.236C 221.84799 87.511 221.011 83.702 222.36899 79.744C 223.70699 75.786 226.717 73.185005 229.03899 73.928C 231.37999 74.653 232.22499 78.462 230.859 82.42" stroke="none" fill="#FFFFFF" fill-rule="nonzero" />
</g>
</svg>